<svg width="32" height="32" viewBox="0 0 32 32" fill="none" xmlns="http://www.w3.org/2000/svg">
<rect x="-0.000480652" width="32" height="32" rx="5" fill="#1E1E24"/>
<path d="M12.2662 27.2V19.7333C12.2662 18.3456 12.2662 17.6517 12.381 17.0747C12.8523 14.7051 14.7046 12.8528 17.0742 12.3814C17.6512 12.2667 18.3451 12.2667 19.7329 12.2667V19.7333C19.7329 21.1211 19.7329 21.815 19.6181 22.392C19.1468 24.7616 17.2945 26.6139 14.9249 27.0852C14.3479 27.2 13.654 27.2 12.2662 27.2Z" fill="#5F54DC"/>
<path d="M12.2662 27.2L12.2662 19.7333C10.8784 19.7333 10.1845 19.7333 9.60752 19.8481C7.23796 20.3194 5.38564 22.1718 4.91431 24.5413C4.79953 25.1183 4.79953 25.8122 4.79953 27.2L12.2662 27.2Z" fill="#F7F4F3"/>
<path d="M27.1995 4.8L27.1995 12.2667V12.2667C27.1995 13.6544 27.1995 14.3483 27.0848 14.9253C26.6134 17.2949 24.7611 19.1472 22.3915 19.6186C21.8145 19.7333 21.1206 19.7333 19.7329 19.7333L19.7329 12.2667C19.7329 10.8789 19.7329 10.185 19.8476 9.60799C20.319 7.23842 22.1713 5.38611 24.5409 4.91477C25.1179 4.8 25.8118 4.8 27.1995 4.8Z" fill="#F45B69"/>
</svg>
